<svg width="24" height="24" viewBox="0 0 24 24" fill="none" xmlns="http://www.w3.org/2000/svg">
<path d="M21 12C20.9999 10.1778 20.4467 8.39856 19.4136 6.89756C18.3804 5.39656 16.916 4.24453 15.2139 3.59382C13.5119 2.9431 11.6524 2.82436 9.88144 3.2533C8.11045 3.68224 6.51138 4.63865 5.2957 5.99604C4.08002 7.35344 3.30501 9.04787 3.07316 10.8553C2.84131 12.6626 3.16354 14.4978 3.99724 16.1181C4.83094 17.7384 6.13683 19.0675 7.74221 19.9295C9.34759 20.7916 11.1768 21.146 12.988 20.946M9.00001 10H9.01001M15 10H15.01" stroke="#D454B0" stroke-width="2" stroke-linecap="round" stroke-linejoin="round"/>
<path d="M9.5 15C9.86608 15.3518 10.3026 15.6219 10.7808 15.7926C11.259 15.9632 11.7679 16.0305 12.274 15.99M18.994 21.5L21.512 18.92C21.8245 18.5963 21.9995 18.1642 22.0002 17.7143C22.001 17.2644 21.8274 16.8317 21.516 16.507C21.3645 16.3487 21.1826 16.2227 20.9813 16.1364C20.7799 16.0501 20.5631 16.0054 20.3441 16.005C20.125 16.0045 19.9081 16.0483 19.7063 16.1337C19.5046 16.2191 19.3222 16.3444 19.17 16.502L19.002 16.674L18.834 16.502C18.6825 16.3438 18.5005 16.2178 18.2991 16.1316C18.0977 16.0455 17.8809 16.0008 17.6619 16.0005C17.4428 16.0001 17.2259 16.044 17.0242 16.1295C16.8225 16.215 16.6401 16.3403 16.488 16.498C16.1758 16.8216 16.001 17.2535 16.0003 17.7032C15.9995 18.1529 16.1729 18.5853 16.484 18.91L18.994 21.5Z" stroke="#D454B0" stroke-width="2" stroke-linecap="round" stroke-linejoin="round"/>
</svg>
