<svg width="40" height="40" viewBox="0 0 40 40" fill="none" xmlns="http://www.w3.org/2000/svg">
<path d="M9.99967 11.6667H18.333C18.775 11.6667 19.199 11.8423 19.5115 12.1548C19.8241 12.4674 19.9997 12.8913 19.9997 13.3333C19.9997 13.7754 19.8241 14.1993 19.5115 14.5118C19.199 14.8244 18.775 15 18.333 15H9.99967C9.55765 15 9.13372 14.8244 8.82116 14.5118C8.5086 14.1993 8.33301 13.7754 8.33301 13.3333C8.33301 12.8913 8.5086 12.4674 8.82116 12.1548C9.13372 11.8423 9.55765 11.6667 9.99967 11.6667ZM21.6663 25H29.9997C30.4417 25 30.8656 25.1756 31.1782 25.4882C31.4907 25.8007 31.6663 26.2246 31.6663 26.6667C31.6663 27.1087 31.4907 27.5326 31.1782 27.8452C30.8656 28.1577 30.4417 28.3333 29.9997 28.3333H21.6663C21.2243 28.3333 20.8004 28.1577 20.4878 27.8452C20.1753 27.5326 19.9997 27.1087 19.9997 26.6667C19.9997 26.2246 20.1753 25.8007 20.4878 25.4882C20.8004 25.1756 21.2243 25 21.6663 25ZM9.99967 18.3333H29.9997C30.4417 18.3333 30.8656 18.5089 31.1782 18.8215C31.4907 19.1341 31.6663 19.558 31.6663 20C31.6663 20.442 31.4907 20.866 31.1782 21.1785C30.8656 21.4911 30.4417 21.6667 29.9997 21.6667H9.99967C9.55765 21.6667 9.13372 21.4911 8.82116 21.1785C8.5086 20.866 8.33301 20.442 8.33301 20C8.33301 19.558 8.5086 19.1341 8.82116 18.8215C9.13372 18.5089 9.55765 18.3333 9.99967 18.3333Z" fill="#1F1F1F"/>
</svg>
